<?xml version="1.0" encoding="UTF-8"?>
<svg xmlns="http://www.w3.org/2000/svg" xmlns:xlink="http://www.w3.org/1999/xlink" width="46px" height="46px" viewBox="0 0 46 46" version="1.1">
<g id="surface1">
<path style=" stroke:none;fill-rule:evenodd;fill:rgb(64.313725%,77.647059%,22.352941%);fill-opacity:1;" d="M 10.898438 15.167969 L 35.273438 15.167969 L 35.273438 35.03125 C 35.273438 36.210938 34.316406 37.167969 33.136719 37.167969 L 30.695312 37.167969 L 30.695312 43.21875 C 30.695312 44.753906 29.46875 46 27.957031 46 C 26.441406 46 25.21875 44.753906 25.21875 43.21875 L 25.21875 37.167969 L 20.953125 37.167969 L 20.953125 43.21875 C 20.953125 44.753906 19.726562 46 18.214844 46 C 16.703125 46 15.472656 44.753906 15.472656 43.21875 L 15.472656 37.167969 L 13.035156 37.167969 C 11.855469 37.167969 10.898438 36.210938 10.898438 35.03125 Z M 6.121094 15.007812 C 4.59375 15.007812 3.355469 16.261719 3.355469 17.816406 L 3.355469 28.792969 C 3.355469 30.339844 4.59375 31.601562 6.121094 31.601562 C 7.648438 31.601562 8.886719 30.339844 8.886719 28.792969 L 8.886719 17.816406 C 8.886719 16.261719 7.648438 15.007812 6.121094 15.007812 Z M 35.273438 13.167969 L 10.898438 13.167969 C 11.199219 9.695312 13.449219 6.707031 16.691406 4.976562 L 14.375 1.570312 C 14.0625 1.113281 14.179688 0.488281 14.640625 0.175781 C 15.101562 -0.136719 15.726562 -0.0195312 16.039062 0.4375 L 18.566406 4.152344 C 19.964844 3.667969 21.484375 3.386719 23.085938 3.386719 C 24.6875 3.386719 26.207031 3.667969 27.605469 4.152344 L 30.132812 0.441406 C 30.441406 -0.0195312 31.070312 -0.136719 31.527344 0.175781 C 31.988281 0.488281 32.105469 1.113281 31.792969 1.570312 L 29.476562 4.976562 C 32.722656 6.703125 34.972656 9.691406 35.273438 13.167969 Z M 19.292969 8.449219 C 19.292969 7.703125 18.6875 7.097656 17.945312 7.097656 C 17.199219 7.097656 16.59375 7.703125 16.59375 8.449219 C 16.59375 9.191406 17.199219 9.796875 17.945312 9.796875 C 18.6875 9.796875 19.292969 9.191406 19.292969 8.449219 Z M 29.746094 8.449219 C 29.746094 7.703125 29.140625 7.097656 28.394531 7.097656 C 27.648438 7.097656 27.046875 7.703125 27.046875 8.449219 C 27.046875 9.191406 27.648438 9.796875 28.394531 9.796875 C 29.140625 9.796875 29.746094 9.191406 29.746094 8.449219 Z M 40.050781 15.003906 C 38.523438 15.003906 37.285156 16.261719 37.285156 17.8125 L 37.285156 28.792969 C 37.285156 30.34375 38.523438 31.605469 40.050781 31.605469 C 41.578125 31.605469 42.816406 30.34375 42.816406 28.792969 L 42.816406 17.8125 C 42.816406 16.261719 41.578125 15.003906 40.050781 15.003906 Z M 40.050781 15.003906 "/>
</g>
</svg>
