<?xml version="1.0" encoding="UTF-8"?>
<svg xmlns="http://www.w3.org/2000/svg" xmlns:xlink="http://www.w3.org/1999/xlink" width="46px" height="46px" viewBox="0 0 46 46" version="1.1">
<g id="surface1">
<path style=" stroke:none;fill-rule:nonzero;fill:rgb(0%,0%,0%);fill-opacity:1;" d="M 31.664062 23.882812 C 31.640625 22.699219 31.949219 21.535156 32.550781 20.519531 C 33.152344 19.503906 34.027344 18.675781 35.074219 18.132812 C 34.414062 17.214844 33.554688 16.460938 32.558594 15.929688 C 31.558594 15.398438 30.453125 15.101562 29.324219 15.066406 C 26.890625 14.875 24.246094 16.484375 23.269531 16.484375 C 22.289062 16.484375 19.875 15.140625 18.035156 15.140625 C 14.203125 15.140625 10.160156 18.1875 10.160156 24.265625 C 10.175781 26.160156 10.507812 28.035156 11.136719 29.824219 C 11.980469 32.277344 15.140625 38.429688 18.4375 38.332031 C 20.164062 38.332031 21.390625 37.105469 23.632812 37.105469 C 25.875 37.105469 26.929688 38.332031 28.863281 38.332031 C 32.179688 38.332031 35.054688 32.679688 35.878906 30.167969 C 34.632812 29.65625 33.566406 28.789062 32.8125 27.667969 C 32.0625 26.546875 31.660156 25.230469 31.664062 23.882812 Z M 27.828125 12.628906 C 28.425781 11.960938 28.875 11.171875 29.148438 10.316406 C 29.421875 9.460938 29.515625 8.558594 29.421875 7.667969 C 27.632812 7.863281 25.976562 8.714844 24.78125 10.0625 C 24.164062 10.714844 23.6875 11.484375 23.378906 12.332031 C 23.074219 13.175781 22.945312 14.074219 23 14.96875 C 23.929688 14.996094 24.847656 14.796875 25.683594 14.390625 C 26.519531 13.980469 27.242188 13.378906 27.792969 12.628906 Z M 27.828125 12.628906 "/>
</g>
</svg>
