<svg width="51pt" height="51pt" viewBox="0 0 51 51" xmlns="http://www.w3.org/2000/svg"><g id="fontsvg1719476967077" stroke-linecap="round" fill-rule="evenodd" fill="#000000"><path d="M 49.024 22.12 L 45.654 17.92 A 4.45 4.45 0 0 1 45.02 16.846 A 3.762 3.762 0 0 1 44.678 15.528 L 44.092 10.205 A 4.457 4.457 0 0 0 42.725 7.422 A 4.626 4.626 0 0 0 39.942 6.055 L 34.619 5.469 A 5.768 5.768 0 0 1 33.842 5.313 A 4.591 4.591 0 0 1 33.301 5.127 A 5.758 5.758 0 0 1 32.531 4.701 A 4.887 4.887 0 0 1 32.178 4.444 L 27.979 1.026 A 4.529 4.529 0 0 0 25.049 0 A 4.529 4.529 0 0 0 22.119 1.026 L 17.92 4.444 A 4.45 4.45 0 0 1 16.846 5.079 A 4.556 4.556 0 0 1 15.528 5.371 L 10.205 6.006 Q 8.545 6.153 7.422 7.325 A 4.666 4.666 0 0 0 6.055 10.157 L 5.469 15.479 A 5.366 5.366 0 0 1 5.24 16.449 A 4.767 4.767 0 0 1 5.127 16.748 A 5.758 5.758 0 0 1 4.701 17.518 A 4.887 4.887 0 0 1 4.444 17.871 L 1.026 22.071 A 4.658 4.658 0 0 0 0 25 Q 0 26.661 1.026 27.979 L 4.444 32.129 A 5.509 5.509 0 0 1 5.078 33.252 A 4.556 4.556 0 0 1 5.371 34.571 L 6.006 39.844 Q 6.153 41.504 7.324 42.676 A 4.438 4.438 0 0 0 10.156 43.995 L 15.479 44.629 A 3.342 3.342 0 0 1 16.748 44.971 A 5.758 5.758 0 0 1 17.518 45.398 A 4.887 4.887 0 0 1 17.871 45.655 L 22.07 49.024 A 4.658 4.658 0 0 0 25 50.049 Q 26.66 50.049 27.979 49.024 L 32.129 45.655 A 5.509 5.509 0 0 1 33.252 45.02 A 3.762 3.762 0 0 1 34.57 44.678 L 39.844 44.092 Q 41.504 43.897 42.676 42.725 A 4.393 4.393 0 0 0 43.994 39.942 L 44.629 34.62 A 3.691 3.691 0 0 1 44.773 33.801 A 3.126 3.126 0 0 1 44.971 33.301 A 5.758 5.758 0 0 1 45.397 32.531 A 4.887 4.887 0 0 1 45.654 32.178 L 49.024 27.979 A 4.529 4.529 0 0 0 50.049 25.049 A 4.529 4.529 0 0 0 49.024 22.12 Z M 40.674 17.383 L 20.361 37.549 L 9.424 26.612 L 14.111 21.924 L 20.361 28.174 L 35.986 12.549 L 40.674 17.383 Z" vector-effect="non-scaling-stroke"/></g></svg>