<svg width="86" height="86" viewBox="0 0 86 86" fill="none" xmlns="http://www.w3.org/2000/svg">
<path d="M43 71.9516C58.9895 71.9516 71.9516 58.9895 71.9516 43C71.9516 27.0104 58.9895 14.0483 43 14.0483C27.0104 14.0483 14.0483 27.0104 14.0483 43C14.0483 58.9895 27.0104 71.9516 43 71.9516Z" stroke="#58FA8F" stroke-width="5" stroke-miterlimit="10"/>
<path d="M43.0001 60.3387C52.576 60.3387 60.3388 52.5759 60.3388 42.9999C60.3388 33.424 52.576 25.6612 43.0001 25.6612C33.4242 25.6612 25.6614 33.424 25.6614 42.9999C25.6614 52.5759 33.4242 60.3387 43.0001 60.3387Z" stroke="#58FA8F" stroke-width="5" stroke-miterlimit="10"/>
<path d="M43 83C65.0914 83 83 65.0914 83 43C83 20.9086 65.0914 3 43 3C20.9086 3 3 20.9086 3 43C3 65.0914 20.9086 83 43 83Z" stroke="#58FA8F" stroke-width="5" stroke-miterlimit="10"/>
</svg>
